<mxfile host="65bd71144e">
    <diagram id="qo2iC1FsyqQJm4cGxZXf" name="ページ1">
        <mxGraphModel dx="858" dy="540" grid="1" gridSize="10" guides="1" tooltips="1" connect="1" arrows="1" fold="1" page="1" pageScale="1" pageWidth="827" pageHeight="1169" math="0" shadow="0">
            <root>
                <mxCell id="0"/>
                <mxCell id="1" parent="0"/>
                <mxCell id="3" value="Controller" style="shape=umlLifeline;perimeter=lifelinePerimeter;whiteSpace=wrap;html=1;container=1;collapsible=0;recursiveResize=0;outlineConnect=0;" vertex="1" parent="1">
                    <mxGeometry x="80" y="20" width="100" height="300" as="geometry"/>
                </mxCell>
                <mxCell id="10" value="Object" style="html=1;" vertex="1" parent="3">
                    <mxGeometry x="-10" y="90" width="110" height="50" as="geometry"/>
                </mxCell>
                <mxCell id="8" value="1. POST" style="html=1;verticalAlign=bottom;endArrow=block;" edge="1" parent="1" target="3">
                    <mxGeometry width="80" relative="1" as="geometry">
                        <mxPoint x="20" y="100" as="sourcePoint"/>
                        <mxPoint x="100" y="100" as="targetPoint"/>
                    </mxGeometry>
                </mxCell>
            </root>
        </mxGraphModel>
    </diagram>
</mxfile>